<svg width="112" height="28" viewBox="0 0 112 28" fill="none" xmlns="http://www.w3.org/2000/svg">
    <mask id="mask0_147_277" style="mask-type:luminance" maskUnits="userSpaceOnUse" x="0" y="0" width="112" height="28">
        <path d="M12.2088 26.663L7.7251 17.8336H4.38021V26.663H0V1.22422H8.90178C9.87737 1.20496 10.8461 1.41412 11.7483 1.83884C12.6506 2.26357 13.4672 2.89487 14.1481 3.6939C14.845 4.46642 15.3961 5.39386 15.7676 6.41909C16.1392 7.44433 16.3232 8.54566 16.3083 9.65526C16.3109 11.2172 15.9008 12.7437 15.1316 14.0347C14.3657 15.3625 13.2859 16.4146 12.0177 17.0688L16.9454 26.663H12.2088ZM4.38021 5.91092V13.436H8.90178C9.30613 13.4374 9.70593 13.3386 10.0737 13.1465C10.4415 12.9543 10.7684 12.6734 11.0322 12.323C11.6208 11.5979 11.9399 10.6397 11.9221 9.65071C11.9413 8.66685 11.6217 7.71376 11.0322 6.99666C10.7658 6.65144 10.4379 6.3755 10.0704 6.18742C9.70289 5.99935 9.30441 5.90351 8.90178 5.90636L4.38021 5.91092ZM33.8252 26.663L32.4912 22.0833H23.6213L22.2853 26.663H17.5487L25.3375 1.22422H30.775L38.5956 26.663H33.8252ZM25.019 17.3966H31.1234L28.0732 7.00122L25.019 17.3966ZM40.7479 1.22422H45.1281V26.663H40.7479V1.22422ZM62.1432 1.22422H66.5235V26.663H63.2005L53.6636 11.1075V26.663H49.2833V1.22422H52.6203L62.1572 16.7433L62.1432 1.22422ZM84.1199 13.4724C86.0698 14.7562 87.0447 16.694 87.0447 19.2859C87.0447 21.4437 86.3771 23.2131 85.0418 24.594C83.7065 25.9748 82.0639 26.6645 80.1141 26.663H70.6807V1.22422H79.4411C81.3485 1.22422 82.9539 1.89646 84.2573 3.24094C85.5608 4.58541 86.2118 6.29939 86.2105 8.38287C86.2105 10.4906 85.5137 12.1872 84.1199 13.4724ZM79.4411 5.91092H75.0609V11.5081H79.4411C79.7575 11.5169 80.072 11.4504 80.3647 11.3129C80.6574 11.1753 80.9219 10.9697 81.1414 10.7091C81.368 10.4462 81.5457 10.1336 81.6641 9.7902C81.7825 9.4468 81.839 9.07961 81.8303 8.71064C81.8399 8.3437 81.7859 7.97821 81.6714 7.63523C81.5569 7.29224 81.3843 6.97852 81.1633 6.71214C80.9419 6.44727 80.674 6.23895 80.3772 6.10087C80.0804 5.96278 79.7614 5.89804 79.4411 5.91092ZM80.1081 21.9763C80.4503 21.9876 80.7909 21.9175 81.1082 21.7706C81.4256 21.6237 81.7128 21.4031 81.9517 21.1228C82.1946 20.8371 82.3845 20.4983 82.51 20.1268C82.6356 19.7552 82.6942 19.3585 82.6824 18.9604C82.6922 18.568 82.6325 18.1774 82.5069 17.8121C82.3814 17.4468 82.1925 17.1142 81.9517 16.8344C81.7129 16.5538 81.4257 16.3328 81.1084 16.1855C80.7911 16.0382 80.4504 15.9677 80.1081 15.9785H75.0609V21.9763H80.1081ZM108.625 23.342C106.378 25.8975 103.644 27.1752 100.422 27.1752C97.2009 27.1752 94.4738 25.8967 92.2413 23.3398C90.0047 20.7844 88.8871 17.6523 88.8884 13.9436C88.8897 10.2349 90.0074 7.10364 92.2413 4.54975C94.4778 1.99282 97.2068 0.714355 100.428 0.714355C103.65 0.714355 106.384 1.99282 108.631 4.54975C110.877 7.10516 112 10.2365 112 13.9436C112 17.6508 110.877 20.7828 108.631 23.3398L108.625 23.342ZM95.3034 19.9277C96.6812 21.4892 98.3875 22.2707 100.422 22.2722C102.457 22.2737 104.163 21.4923 105.541 19.9277C106.923 18.3602 107.614 16.3655 107.614 13.9436C107.614 11.5217 106.925 9.52324 105.547 7.94811C104.169 6.37298 102.463 5.58542 100.428 5.58542C98.3935 5.58542 96.6872 6.37298 95.3094 7.94811C93.9316 9.52324 93.2427 11.5217 93.2427 13.9436C93.2427 16.3655 93.9316 18.3587 95.3094 19.9232L95.3034 19.9277Z" fill="white"/>
    </mask>
    <g mask="url(#mask0_147_277)">
        <rect y="0.714355" width="112" height="26.2857" fill="black"/>
    </g>
</svg>
